<?xml version="1.0" encoding="UTF-8" standalone="no"?>
<!DOCTYPE svg PUBLIC "-//W3C//DTD SVG 1.1//EN"
 "http://www.w3.org/Graphics/SVG/1.1/DTD/svg11.dtd">
<!-- Generated by graphviz version 2.40.1 (0)
 -->
<!-- Pages: 1 -->
<svg width="295pt" height="980pt"
 viewBox="0.00 0.00 295.27 980.00" xmlns="http://www.w3.org/2000/svg" xmlns:xlink="http://www.w3.org/1999/xlink">
<g id="graph0" class="graph" transform="scale(1 1) rotate(0) translate(4 976)">
<polygon fill="#ffffff" stroke="transparent" points="-4,4 -4,-976 291.2745,-976 291.2745,4 -4,4"/>
<!-- baking powder, &#160;bak -->
<g id="node1" class="node">
<title>baking powder, &#160;bak</title>
<ellipse fill="none" stroke="#0000ff" cx="143.6373" cy="-810" rx="82.5854" ry="18"/>
<text text-anchor="middle" x="143.6373" y="-806.3" font-family="Times,serif" font-size="14.00" fill="#000000">baking powder, &#160;bak</text>
</g>
<!-- Mixing Dry Ingredients, &#160;mix -->
<g id="node2" class="node">
<title>Mixing Dry Ingredients, &#160;mix</title>
<ellipse fill="none" stroke="#ff0000" cx="143.6373" cy="-738" rx="116.5" ry="18"/>
<text text-anchor="middle" x="143.6373" y="-734.3" font-family="Times,serif" font-size="14.00" fill="#000000">Mixing Dry Ingredients, &#160;mix</text>
</g>
<!-- baking powder, &#160;bak&#45;&gt;Mixing Dry Ingredients, &#160;mix -->
<g id="edge1" class="edge">
<title>baking powder, &#160;bak&#45;&gt;Mixing Dry Ingredients, &#160;mix</title>
<path fill="none" stroke="#000000" d="M143.6373,-791.83C143.6373,-784.13 143.6373,-774.97 143.6373,-766.42"/>
<polygon fill="#000000" stroke="#000000" points="147.1374,-766.41 143.6373,-756.41 140.1374,-766.41 147.1374,-766.41"/>
</g>
<!-- Dry Ingredients, &#160;dry -->
<g id="node3" class="node">
<title>Dry Ingredients, &#160;dry</title>
<ellipse fill="none" stroke="#00ff00" cx="143.6373" cy="-666" rx="85.2851" ry="18"/>
<text text-anchor="middle" x="143.6373" y="-662.3" font-family="Times,serif" font-size="14.00" fill="#000000">Dry Ingredients, &#160;dry</text>
</g>
<!-- Mixing Dry Ingredients, &#160;mix&#45;&gt;Dry Ingredients, &#160;dry -->
<g id="edge2" class="edge">
<title>Mixing Dry Ingredients, &#160;mix&#45;&gt;Dry Ingredients, &#160;dry</title>
<path fill="none" stroke="#000000" d="M143.6373,-719.83C143.6373,-712.13 143.6373,-702.97 143.6373,-694.42"/>
<polygon fill="#000000" stroke="#000000" points="147.1374,-694.41 143.6373,-684.41 140.1374,-694.41 147.1374,-694.41"/>
</g>
<!-- dry ingredients, &#160;dry -->
<g id="node4" class="node">
<title>dry ingredients, &#160;dry</title>
<ellipse fill="none" stroke="#0000ff" cx="143.6373" cy="-594" rx="83.3857" ry="18"/>
<text text-anchor="middle" x="143.6373" y="-590.3" font-family="Times,serif" font-size="14.00" fill="#000000">dry ingredients, &#160;dry</text>
</g>
<!-- Dry Ingredients, &#160;dry&#45;&gt;dry ingredients, &#160;dry -->
<g id="edge3" class="edge">
<title>Dry Ingredients, &#160;dry&#45;&gt;dry ingredients, &#160;dry</title>
<path fill="none" stroke="#000000" d="M143.6373,-647.83C143.6373,-640.13 143.6373,-630.97 143.6373,-622.42"/>
<polygon fill="#000000" stroke="#000000" points="147.1374,-622.41 143.6373,-612.41 140.1374,-622.41 147.1374,-622.41"/>
</g>
<!-- Mixing Batter, &#160;mix -->
<g id="node5" class="node">
<title>Mixing Batter, &#160;mix</title>
<ellipse fill="none" stroke="#ff0000" cx="143.6373" cy="-522" rx="82" ry="18"/>
<text text-anchor="middle" x="143.6373" y="-518.3" font-family="Times,serif" font-size="14.00" fill="#000000">Mixing Batter, &#160;mix</text>
</g>
<!-- dry ingredients, &#160;dry&#45;&gt;Mixing Batter, &#160;mix -->
<g id="edge4" class="edge">
<title>dry ingredients, &#160;dry&#45;&gt;Mixing Batter, &#160;mix</title>
<path fill="none" stroke="#000000" d="M143.6373,-575.83C143.6373,-568.13 143.6373,-558.97 143.6373,-550.42"/>
<polygon fill="#000000" stroke="#000000" points="147.1374,-550.41 143.6373,-540.41 140.1374,-550.41 147.1374,-550.41"/>
</g>
<!-- Batter, &#160;bat -->
<g id="node6" class="node">
<title>Batter, &#160;bat</title>
<ellipse fill="none" stroke="#00ff00" cx="143.6373" cy="-450" rx="50.0912" ry="18"/>
<text text-anchor="middle" x="143.6373" y="-446.3" font-family="Times,serif" font-size="14.00" fill="#000000">Batter, &#160;bat</text>
</g>
<!-- Mixing Batter, &#160;mix&#45;&gt;Batter, &#160;bat -->
<g id="edge5" class="edge">
<title>Mixing Batter, &#160;mix&#45;&gt;Batter, &#160;bat</title>
<path fill="none" stroke="#000000" d="M143.6373,-503.83C143.6373,-496.13 143.6373,-486.97 143.6373,-478.42"/>
<polygon fill="#000000" stroke="#000000" points="147.1374,-478.41 143.6373,-468.41 140.1374,-478.41 147.1374,-478.41"/>
</g>
<!-- batter, &#160;bat -->
<g id="node7" class="node">
<title>batter, &#160;bat</title>
<ellipse fill="none" stroke="#0000ff" cx="143.6373" cy="-378" rx="48.1917" ry="18"/>
<text text-anchor="middle" x="143.6373" y="-374.3" font-family="Times,serif" font-size="14.00" fill="#000000">batter, &#160;bat</text>
</g>
<!-- Batter, &#160;bat&#45;&gt;batter, &#160;bat -->
<g id="edge9" class="edge">
<title>Batter, &#160;bat&#45;&gt;batter, &#160;bat</title>
<path fill="none" stroke="#000000" d="M143.6373,-431.83C143.6373,-424.13 143.6373,-414.97 143.6373,-406.42"/>
<polygon fill="#000000" stroke="#000000" points="147.1374,-406.41 143.6373,-396.41 140.1374,-406.41 147.1374,-406.41"/>
</g>
<!-- Baking Baked Cake, &#160;bak -->
<g id="node8" class="node">
<title>Baking Baked Cake, &#160;bak</title>
<ellipse fill="none" stroke="#ff0000" cx="143.6373" cy="-306" rx="101.5" ry="18"/>
<text text-anchor="middle" x="143.6373" y="-302.3" font-family="Times,serif" font-size="14.00" fill="#000000">Baking Baked Cake, &#160;bak</text>
</g>
<!-- batter, &#160;bat&#45;&gt;Baking Baked Cake, &#160;bak -->
<g id="edge6" class="edge">
<title>batter, &#160;bat&#45;&gt;Baking Baked Cake, &#160;bak</title>
<path fill="none" stroke="#000000" d="M143.6373,-359.83C143.6373,-352.13 143.6373,-342.97 143.6373,-334.42"/>
<polygon fill="#000000" stroke="#000000" points="147.1374,-334.41 143.6373,-324.41 140.1374,-334.41 147.1374,-334.41"/>
</g>
<!-- Baked Cake, &#160;bak -->
<g id="node9" class="node">
<title>Baked Cake, &#160;bak</title>
<ellipse fill="none" stroke="#00ff00" cx="143.6373" cy="-234" rx="73.5" ry="18"/>
<text text-anchor="middle" x="143.6373" y="-230.3" font-family="Times,serif" font-size="14.00" fill="#000000">Baked Cake, &#160;bak</text>
</g>
<!-- Baking Baked Cake, &#160;bak&#45;&gt;Baked Cake, &#160;bak -->
<g id="edge7" class="edge">
<title>Baking Baked Cake, &#160;bak&#45;&gt;Baked Cake, &#160;bak</title>
<path fill="none" stroke="#000000" d="M143.6373,-287.83C143.6373,-280.13 143.6373,-270.97 143.6373,-262.42"/>
<polygon fill="#000000" stroke="#000000" points="147.1374,-262.41 143.6373,-252.41 140.1374,-262.41 147.1374,-262.41"/>
</g>
<!-- baked cake, &#160;bak -->
<g id="node10" class="node">
<title>baked cake, &#160;bak</title>
<ellipse fill="none" stroke="#0000ff" cx="143.6373" cy="-162" rx="70.3881" ry="18"/>
<text text-anchor="middle" x="143.6373" y="-158.3" font-family="Times,serif" font-size="14.00" fill="#000000">baked cake, &#160;bak</text>
</g>
<!-- Baked Cake, &#160;bak&#45;&gt;baked cake, &#160;bak -->
<g id="edge8" class="edge">
<title>Baked Cake, &#160;bak&#45;&gt;baked cake, &#160;bak</title>
<path fill="none" stroke="#000000" d="M143.6373,-215.83C143.6373,-208.13 143.6373,-198.97 143.6373,-190.42"/>
<polygon fill="#000000" stroke="#000000" points="147.1374,-190.41 143.6373,-180.41 140.1374,-190.41 147.1374,-190.41"/>
</g>
<!-- Icing Cake, &#160;ici -->
<g id="node11" class="node">
<title>Icing Cake, &#160;ici</title>
<ellipse fill="none" stroke="#ff0000" cx="143.6373" cy="-90" rx="65.7887" ry="18"/>
<text text-anchor="middle" x="143.6373" y="-86.3" font-family="Times,serif" font-size="14.00" fill="#000000">Icing Cake, &#160;ici</text>
</g>
<!-- baked cake, &#160;bak&#45;&gt;Icing Cake, &#160;ici -->
<g id="edge10" class="edge">
<title>baked cake, &#160;bak&#45;&gt;Icing Cake, &#160;ici</title>
<path fill="none" stroke="#000000" d="M143.6373,-143.83C143.6373,-136.13 143.6373,-126.97 143.6373,-118.42"/>
<polygon fill="#000000" stroke="#000000" points="147.1374,-118.41 143.6373,-108.41 140.1374,-118.41 147.1374,-118.41"/>
</g>
<!-- Cake, &#160;cak -->
<g id="node12" class="node">
<title>Cake, &#160;cak</title>
<ellipse fill="none" stroke="#00ff00" cx="143.6373" cy="-18" rx="48.1917" ry="18"/>
<text text-anchor="middle" x="143.6373" y="-14.3" font-family="Times,serif" font-size="14.00" fill="#000000">Cake, &#160;cak</text>
</g>
<!-- Icing Cake, &#160;ici&#45;&gt;Cake, &#160;cak -->
<g id="edge11" class="edge">
<title>Icing Cake, &#160;ici&#45;&gt;Cake, &#160;cak</title>
<path fill="none" stroke="#000000" d="M143.6373,-71.831C143.6373,-64.131 143.6373,-54.974 143.6373,-46.417"/>
<polygon fill="#000000" stroke="#000000" points="147.1374,-46.413 143.6373,-36.413 140.1374,-46.413 147.1374,-46.413"/>
</g>
<!-- Acme Baking Powder, &#160;bak -->
<g id="node13" class="node">
<title>Acme Baking Powder, &#160;bak</title>
<ellipse fill="none" stroke="#00ff00" cx="143.6373" cy="-882" rx="108" ry="18"/>
<text text-anchor="middle" x="143.6373" y="-878.3" font-family="Times,serif" font-size="14.00" fill="#000000">Acme Baking Powder, &#160;bak</text>
</g>
<!-- Acme Baking Powder, &#160;bak&#45;&gt;baking powder, &#160;bak -->
<g id="edge12" class="edge">
<title>Acme Baking Powder, &#160;bak&#45;&gt;baking powder, &#160;bak</title>
<path fill="none" stroke="#000000" d="M143.6373,-863.83C143.6373,-856.13 143.6373,-846.97 143.6373,-838.42"/>
<polygon fill="#000000" stroke="#000000" points="147.1374,-838.41 143.6373,-828.41 140.1374,-838.41 147.1374,-838.41"/>
</g>
<!-- Procuring Acme Baking Powder, &#160;pro -->
<g id="node14" class="node">
<title>Procuring Acme Baking Powder, &#160;pro</title>
<ellipse fill="none" stroke="#ff0000" cx="143.6373" cy="-954" rx="143.7746" ry="18"/>
<text text-anchor="middle" x="143.6373" y="-950.3" font-family="Times,serif" font-size="14.00" fill="#000000">Procuring Acme Baking Powder, &#160;pro</text>
</g>
<!-- Procuring Acme Baking Powder, &#160;pro&#45;&gt;Acme Baking Powder, &#160;bak -->
<g id="edge13" class="edge">
<title>Procuring Acme Baking Powder, &#160;pro&#45;&gt;Acme Baking Powder, &#160;bak</title>
<path fill="none" stroke="#000000" d="M143.6373,-935.83C143.6373,-928.13 143.6373,-918.97 143.6373,-910.42"/>
<polygon fill="#000000" stroke="#000000" points="147.1374,-910.41 143.6373,-900.41 140.1374,-910.41 147.1374,-910.41"/>
</g>
</g>
</svg>
