<?xml version="1.0" encoding="UTF-8" standalone="no"?>
<!DOCTYPE svg PUBLIC "-//W3C//DTD SVG 1.1//EN"
 "http://www.w3.org/Graphics/SVG/1.1/DTD/svg11.dtd">
<!-- Generated by graphviz version 2.40.1 (0)
 -->
<!-- Pages: 1 -->
<svg width="3367pt" height="980pt"
 viewBox="0.00 0.00 3367.01 980.00" xmlns="http://www.w3.org/2000/svg" xmlns:xlink="http://www.w3.org/1999/xlink">
<g id="graph0" class="graph" transform="scale(1 1) rotate(0) translate(4 976)">
<polygon fill="#ffffff" stroke="transparent" points="-4,4 -4,-976 3363.01,-976 3363.01,4 -4,4"/>
<!-- Cake, &#160;cak -->
<g id="node1" class="node">
<title>Cake, &#160;cak</title>
<ellipse fill="none" stroke="#00ff00" cx="2222.01" cy="-18" rx="48.1917" ry="18"/>
<text text-anchor="middle" x="2222.01" y="-14.3" font-family="Times,serif" font-size="14.00" fill="#000000">Cake, &#160;cak</text>
</g>
<!-- Icing Cake, &#160;ici -->
<g id="node2" class="node">
<title>Icing Cake, &#160;ici</title>
<ellipse fill="none" stroke="#ff0000" cx="2045.01" cy="-90" rx="65.7887" ry="18"/>
<text text-anchor="middle" x="2045.01" y="-86.3" font-family="Times,serif" font-size="14.00" fill="#000000">Icing Cake, &#160;ici</text>
</g>
<!-- Icing Cake, &#160;ici&#45;&gt;Cake, &#160;cak -->
<g id="edge1" class="edge">
<title>Icing Cake, &#160;ici&#45;&gt;Cake, &#160;cak</title>
<path fill="none" stroke="#000000" d="M2082.11,-74.906C2110.71,-63.26 2150.31,-47.146 2180.11,-35.038"/>
<polygon fill="#000000" stroke="#000000" points="2181.4639,-38.2658 2189.41,-31.258 2178.8281,-31.781 2181.4639,-38.2658"/>
</g>
<!-- Final Appearance, &#160;app -->
<g id="node3" class="node">
<title>Final Appearance, &#160;app</title>
<ellipse fill="none" stroke="#a020f0" cx="2222.01" cy="-90" rx="93" ry="18"/>
<text text-anchor="middle" x="2222.01" y="-86.3" font-family="Times,serif" font-size="14.00" fill="#000000">Final Appearance, &#160;app</text>
</g>
<!-- Final Appearance, &#160;app&#45;&gt;Cake, &#160;cak -->
<g id="edge2" class="edge">
<title>Final Appearance, &#160;app&#45;&gt;Cake, &#160;cak</title>
<path fill="none" stroke="#000000" d="M2222.01,-71.831C2222.01,-64.131 2222.01,-54.974 2222.01,-46.417"/>
<polygon fill="#000000" stroke="#000000" points="2225.5101,-46.413 2222.01,-36.413 2218.5101,-46.413 2225.5101,-46.413"/>
</g>
<!-- Final Taste, &#160;tas -->
<g id="node4" class="node">
<title>Final Taste, &#160;tas</title>
<ellipse fill="none" stroke="#a020f0" cx="2400.01" cy="-90" rx="67" ry="18"/>
<text text-anchor="middle" x="2400.01" y="-86.3" font-family="Times,serif" font-size="14.00" fill="#000000">Final Taste, &#160;tas</text>
</g>
<!-- Final Taste, &#160;tas&#45;&gt;Cake, &#160;cak -->
<g id="edge3" class="edge">
<title>Final Taste, &#160;tas&#45;&gt;Cake, &#160;cak</title>
<path fill="none" stroke="#000000" d="M2362.71,-74.906C2333.91,-63.26 2294.01,-47.146 2264.11,-35.038"/>
<polygon fill="#000000" stroke="#000000" points="2265.3919,-31.781 2254.81,-31.258 2262.7561,-38.2658 2265.3919,-31.781"/>
</g>
<!-- baked cake, &#160;bak -->
<g id="node5" class="node">
<title>baked cake, &#160;bak</title>
<ellipse fill="none" stroke="#0000ff" cx="1996.01" cy="-162" rx="70.3881" ry="18"/>
<text text-anchor="middle" x="1996.01" y="-158.3" font-family="Times,serif" font-size="14.00" fill="#000000">baked cake, &#160;bak</text>
</g>
<!-- baked cake, &#160;bak&#45;&gt;Icing Cake, &#160;ici -->
<g id="edge4" class="edge">
<title>baked cake, &#160;bak&#45;&gt;Icing Cake, &#160;ici</title>
<path fill="none" stroke="#000000" d="M2008.11,-144.2C2013.81,-135.81 2020.71,-125.62 2027.11,-116.36"/>
<polygon fill="#000000" stroke="#000000" points="2030.1585,-118.0977 2032.81,-107.84 2024.3404,-114.2053 2030.1585,-118.0977"/>
</g>
<!-- Baked Cake, &#160;bak -->
<g id="node6" class="node">
<title>Baked Cake, &#160;bak</title>
<ellipse fill="none" stroke="#00ff00" cx="1974.01" cy="-234" rx="73.5" ry="18"/>
<text text-anchor="middle" x="1974.01" y="-230.3" font-family="Times,serif" font-size="14.00" fill="#000000">Baked Cake, &#160;bak</text>
</g>
<!-- Baked Cake, &#160;bak&#45;&gt;baked cake, &#160;bak -->
<g id="edge5" class="edge">
<title>Baked Cake, &#160;bak&#45;&gt;baked cake, &#160;bak</title>
<path fill="none" stroke="#000000" d="M1979.51,-215.83C1981.91,-208.05 1984.81,-198.77 1987.41,-190.13"/>
<polygon fill="#000000" stroke="#000000" points="1990.8051,-190.9975 1990.41,-180.41 1984.1164,-188.933 1990.8051,-190.9975"/>
</g>
<!-- Baking Baked Cake, &#160;bak -->
<g id="node7" class="node">
<title>Baking Baked Cake, &#160;bak</title>
<ellipse fill="none" stroke="#ff0000" cx="1974.01" cy="-306" rx="101.5" ry="18"/>
<text text-anchor="middle" x="1974.01" y="-302.3" font-family="Times,serif" font-size="14.00" fill="#000000">Baking Baked Cake, &#160;bak</text>
</g>
<!-- Baking Baked Cake, &#160;bak&#45;&gt;Baked Cake, &#160;bak -->
<g id="edge6" class="edge">
<title>Baking Baked Cake, &#160;bak&#45;&gt;Baked Cake, &#160;bak</title>
<path fill="none" stroke="#000000" d="M1974.01,-287.83C1974.01,-280.13 1974.01,-270.97 1974.01,-262.42"/>
<polygon fill="#000000" stroke="#000000" points="1977.5101,-262.41 1974.01,-252.41 1970.5101,-262.41 1977.5101,-262.41"/>
</g>
<!-- Baking doneness, &#160;don -->
<g id="node8" class="node">
<title>Baking doneness, &#160;don</title>
<ellipse fill="none" stroke="#a020f0" cx="1764.01" cy="-306" rx="91" ry="18"/>
<text text-anchor="middle" x="1764.01" y="-302.3" font-family="Times,serif" font-size="14.00" fill="#000000">Baking doneness, &#160;don</text>
</g>
<!-- Baking doneness, &#160;don&#45;&gt;Baked Cake, &#160;bak -->
<g id="edge7" class="edge">
<title>Baking doneness, &#160;don&#45;&gt;Baked Cake, &#160;bak</title>
<path fill="none" stroke="#000000" d="M1809.61,-290.38C1842.41,-279.12 1886.81,-263.9 1921.21,-252.12"/>
<polygon fill="#000000" stroke="#000000" points="1922.7037,-255.3069 1931.01,-248.73 1920.4152,-248.6915 1922.7037,-255.3069"/>
</g>
<!-- batter, &#160;bat -->
<g id="node9" class="node">
<title>batter, &#160;bat</title>
<ellipse fill="none" stroke="#0000ff" cx="1967.01" cy="-378" rx="48.1917" ry="18"/>
<text text-anchor="middle" x="1967.01" y="-374.3" font-family="Times,serif" font-size="14.00" fill="#000000">batter, &#160;bat</text>
</g>
<!-- batter, &#160;bat&#45;&gt;Baking Baked Cake, &#160;bak -->
<g id="edge8" class="edge">
<title>batter, &#160;bat&#45;&gt;Baking Baked Cake, &#160;bak</title>
<path fill="none" stroke="#000000" d="M1968.81,-359.83C1969.51,-352.13 1970.41,-342.97 1971.21,-334.42"/>
<polygon fill="#000000" stroke="#000000" points="1974.6985,-334.7084 1972.21,-324.41 1967.7332,-334.0125 1974.6985,-334.7084"/>
</g>
<!-- Batter, &#160;bat -->
<g id="node10" class="node">
<title>Batter, &#160;bat</title>
<ellipse fill="none" stroke="#00ff00" cx="1964.01" cy="-450" rx="50.0912" ry="18"/>
<text text-anchor="middle" x="1964.01" y="-446.3" font-family="Times,serif" font-size="14.00" fill="#000000">Batter, &#160;bat</text>
</g>
<!-- Batter, &#160;bat&#45;&gt;batter, &#160;bat -->
<g id="edge9" class="edge">
<title>Batter, &#160;bat&#45;&gt;batter, &#160;bat</title>
<path fill="none" stroke="#000000" d="M1964.71,-431.83C1965.11,-424.13 1965.51,-414.97 1965.81,-406.42"/>
<polygon fill="#000000" stroke="#000000" points="1969.3078,-406.5418 1966.21,-396.41 1962.3134,-406.2622 1969.3078,-406.5418"/>
</g>
<!-- Mixing Batter, &#160;mix -->
<g id="node11" class="node">
<title>Mixing Batter, &#160;mix</title>
<ellipse fill="none" stroke="#ff0000" cx="1957.01" cy="-522" rx="82" ry="18"/>
<text text-anchor="middle" x="1957.01" y="-518.3" font-family="Times,serif" font-size="14.00" fill="#000000">Mixing Batter, &#160;mix</text>
</g>
<!-- Mixing Batter, &#160;mix&#45;&gt;Batter, &#160;bat -->
<g id="edge10" class="edge">
<title>Mixing Batter, &#160;mix&#45;&gt;Batter, &#160;bat</title>
<path fill="none" stroke="#000000" d="M1958.81,-503.83C1959.51,-496.13 1960.41,-486.97 1961.21,-478.42"/>
<polygon fill="#000000" stroke="#000000" points="1964.6985,-478.7084 1962.21,-468.41 1957.7332,-478.0125 1964.6985,-478.7084"/>
</g>
<!-- milk, &#160;mil -->
<g id="node12" class="node">
<title>milk, &#160;mil</title>
<ellipse fill="none" stroke="#0000ff" cx="2197.01" cy="-810" rx="47" ry="18"/>
<text text-anchor="middle" x="2197.01" y="-806.3" font-family="Times,serif" font-size="14.00" fill="#000000">milk, &#160;mil</text>
</g>
<!-- milk, &#160;mil&#45;&gt;Mixing Batter, &#160;mix -->
<g id="edge11" class="edge">
<title>milk, &#160;mil&#45;&gt;Mixing Batter, &#160;mix</title>
<path fill="none" stroke="#000000" d="M2160.61,-798.35C2138.91,-789.74 2112.31,-776.01 2095.01,-756 2039.51,-691.76 2081.81,-644.05 2031.01,-576 2021.81,-563.68 2009.01,-552.96 1996.61,-544.39"/>
<polygon fill="#000000" stroke="#000000" points="1998.4763,-541.4279 1988.21,-538.81 1994.603,-547.2587 1998.4763,-541.4279"/>
</g>
<!-- Mixing Frosting, &#160;mix -->
<g id="node13" class="node">
<title>Mixing Frosting, &#160;mix</title>
<ellipse fill="none" stroke="#ff0000" cx="2194.01" cy="-738" rx="90.5" ry="18"/>
<text text-anchor="middle" x="2194.01" y="-734.3" font-family="Times,serif" font-size="14.00" fill="#000000">Mixing Frosting, &#160;mix</text>
</g>
<!-- milk, &#160;mil&#45;&gt;Mixing Frosting, &#160;mix -->
<g id="edge12" class="edge">
<title>milk, &#160;mil&#45;&gt;Mixing Frosting, &#160;mix</title>
<path fill="none" stroke="#000000" d="M2196.21,-791.83C2195.91,-784.13 2195.51,-774.97 2195.21,-766.42"/>
<polygon fill="#000000" stroke="#000000" points="2198.7066,-766.2622 2194.81,-756.41 2191.7122,-766.5418 2198.7066,-766.2622"/>
</g>
<!-- Frosting, &#160;fro -->
<g id="node14" class="node">
<title>Frosting, &#160;fro</title>
<ellipse fill="none" stroke="#00ff00" cx="2297.01" cy="-666" rx="58" ry="18"/>
<text text-anchor="middle" x="2297.01" y="-662.3" font-family="Times,serif" font-size="14.00" fill="#000000">Frosting, &#160;fro</text>
</g>
<!-- Mixing Frosting, &#160;mix&#45;&gt;Frosting, &#160;fro -->
<g id="edge13" class="edge">
<title>Mixing Frosting, &#160;mix&#45;&gt;Frosting, &#160;fro</title>
<path fill="none" stroke="#000000" d="M2218.91,-720.57C2232.81,-710.9 2250.11,-698.76 2265.01,-688.4"/>
<polygon fill="#000000" stroke="#000000" points="2267.1665,-691.1618 2273.31,-682.53 2263.1245,-685.4466 2267.1665,-691.1618"/>
</g>
<!-- frosting, &#160;fro -->
<g id="node15" class="node">
<title>frosting, &#160;fro</title>
<ellipse fill="none" stroke="#0000ff" cx="2123.01" cy="-522" rx="56" ry="18"/>
<text text-anchor="middle" x="2123.01" y="-518.3" font-family="Times,serif" font-size="14.00" fill="#000000">frosting, &#160;fro</text>
</g>
<!-- Frosting, &#160;fro&#45;&gt;frosting, &#160;fro -->
<g id="edge14" class="edge">
<title>Frosting, &#160;fro&#45;&gt;frosting, &#160;fro</title>
<path fill="none" stroke="#000000" d="M2276.31,-648.92C2245.31,-623.19 2186.31,-574.43 2151.31,-545.42"/>
<polygon fill="#000000" stroke="#000000" points="2153.2566,-542.4892 2143.31,-538.84 2148.8099,-547.8955 2153.2566,-542.4892"/>
</g>
<!-- frosting, &#160;fro&#45;&gt;Icing Cake, &#160;ici -->
<g id="edge48" class="edge">
<title>frosting, &#160;fro&#45;&gt;Icing Cake, &#160;ici</title>
<path fill="none" stroke="#000000" d="M2121.51,-503.83C2119.51,-476.53 2116.01,-423.3 2116.01,-378 2116.01,-378 2116.01,-378 2116.01,-234 2116.01,-188.78 2087.51,-143.05 2066.61,-115.61"/>
<polygon fill="#000000" stroke="#000000" points="2069.3337,-113.4113 2060.41,-107.7 2063.8244,-117.7296 2069.3337,-113.4113"/>
</g>
<!-- Greenbrook Milk, &#160;mil -->
<g id="node16" class="node">
<title>Greenbrook Milk, &#160;mil</title>
<ellipse fill="none" stroke="#00ff00" cx="2348.01" cy="-882" rx="92.5" ry="18"/>
<text text-anchor="middle" x="2348.01" y="-878.3" font-family="Times,serif" font-size="14.00" fill="#000000">Greenbrook Milk, &#160;mil</text>
</g>
<!-- Greenbrook Milk, &#160;mil&#45;&gt;milk, &#160;mil -->
<g id="edge15" class="edge">
<title>Greenbrook Milk, &#160;mil&#45;&gt;milk, &#160;mil</title>
<path fill="none" stroke="#000000" d="M2313.01,-865.3C2289.91,-854.3 2259.71,-839.88 2235.81,-828.53"/>
<polygon fill="#000000" stroke="#000000" points="2237.2417,-825.3351 2226.71,-824.18 2234.2227,-831.6506 2237.2417,-825.3351"/>
</g>
<!-- Procuring Greenbrook Milk, &#160;pro -->
<g id="node17" class="node">
<title>Procuring Greenbrook Milk, &#160;pro</title>
<ellipse fill="none" stroke="#ff0000" cx="2402.01" cy="-954" rx="128.8774" ry="18"/>
<text text-anchor="middle" x="2402.01" y="-950.3" font-family="Times,serif" font-size="14.00" fill="#000000">Procuring Greenbrook Milk, &#160;pro</text>
</g>
<!-- Procuring Greenbrook Milk, &#160;pro&#45;&gt;Greenbrook Milk, &#160;mil -->
<g id="edge16" class="edge">
<title>Procuring Greenbrook Milk, &#160;pro&#45;&gt;Greenbrook Milk, &#160;mil</title>
<path fill="none" stroke="#000000" d="M2388.41,-935.83C2382.01,-927.41 2374.41,-917.25 2367.51,-908.03"/>
<polygon fill="#000000" stroke="#000000" points="2370.2147,-905.8031 2361.41,-899.91 2364.618,-910.0075 2370.2147,-905.8031"/>
</g>
<!-- dry ingredients, &#160;dry -->
<g id="node18" class="node">
<title>dry ingredients, &#160;dry</title>
<ellipse fill="none" stroke="#0000ff" cx="1751.01" cy="-594" rx="83.3857" ry="18"/>
<text text-anchor="middle" x="1751.01" y="-590.3" font-family="Times,serif" font-size="14.00" fill="#000000">dry ingredients, &#160;dry</text>
</g>
<!-- dry ingredients, &#160;dry&#45;&gt;Mixing Batter, &#160;mix -->
<g id="edge17" class="edge">
<title>dry ingredients, &#160;dry&#45;&gt;Mixing Batter, &#160;mix</title>
<path fill="none" stroke="#000000" d="M1794.91,-578.64C1826.71,-567.55 1869.71,-552.52 1903.41,-540.72"/>
<polygon fill="#000000" stroke="#000000" points="1904.8246,-543.9333 1913.11,-537.33 1902.5152,-537.3252 1904.8246,-543.9333"/>
</g>
<!-- Dry Ingredients, &#160;dry -->
<g id="node19" class="node">
<title>Dry Ingredients, &#160;dry</title>
<ellipse fill="none" stroke="#00ff00" cx="1291.01" cy="-666" rx="85.2851" ry="18"/>
<text text-anchor="middle" x="1291.01" y="-662.3" font-family="Times,serif" font-size="14.00" fill="#000000">Dry Ingredients, &#160;dry</text>
</g>
<!-- Dry Ingredients, &#160;dry&#45;&gt;dry ingredients, &#160;dry -->
<g id="edge18" class="edge">
<title>Dry Ingredients, &#160;dry&#45;&gt;dry ingredients, &#160;dry</title>
<path fill="none" stroke="#000000" d="M1359.91,-655.22C1444.01,-642.06 1585.81,-619.85 1673.61,-606.11"/>
<polygon fill="#000000" stroke="#000000" points="1674.1718,-609.5648 1683.51,-604.56 1673.0889,-602.649 1674.1718,-609.5648"/>
</g>
<!-- Mixing Dry Ingredients, &#160;mix -->
<g id="node20" class="node">
<title>Mixing Dry Ingredients, &#160;mix</title>
<ellipse fill="none" stroke="#ff0000" cx="774" cy="-738" rx="116.5" ry="18"/>
<text text-anchor="middle" x="774" y="-734.3" font-family="Times,serif" font-size="14.00" fill="#000000">Mixing Dry Ingredients, &#160;mix</text>
</g>
<!-- Mixing Dry Ingredients, &#160;mix&#45;&gt;Dry Ingredients, &#160;dry -->
<g id="edge19" class="edge">
<title>Mixing Dry Ingredients, &#160;mix&#45;&gt;Dry Ingredients, &#160;dry</title>
<path fill="none" stroke="#000000" d="M860.53,-725.95C957.75,-712.41 1114.31,-690.6 1209.41,-677.36"/>
<polygon fill="#000000" stroke="#000000" points="1210.1881,-680.7855 1219.61,-675.94 1209.2229,-673.8524 1210.1881,-680.7855"/>
</g>
<!-- salt, &#160;sal -->
<g id="node21" class="node">
<title>salt, &#160;sal</title>
<ellipse fill="none" stroke="#0000ff" cx="438" cy="-810" rx="40.5" ry="18"/>
<text text-anchor="middle" x="438" y="-806.3" font-family="Times,serif" font-size="14.00" fill="#000000">salt, &#160;sal</text>
</g>
<!-- salt, &#160;sal&#45;&gt;Mixing Dry Ingredients, &#160;mix -->
<g id="edge20" class="edge">
<title>salt, &#160;sal&#45;&gt;Mixing Dry Ingredients, &#160;mix</title>
<path fill="none" stroke="#000000" d="M474.6,-802.16C527.37,-790.85 626.12,-769.69 695.75,-754.77"/>
<polygon fill="#000000" stroke="#000000" points="696.7587,-758.1332 705.8,-752.61 695.2878,-751.2895 696.7587,-758.1332"/>
</g>
<!-- Acme Salt, &#160;sal -->
<g id="node22" class="node">
<title>Acme Salt, &#160;sal</title>
<ellipse fill="none" stroke="#00ff00" cx="335" cy="-882" rx="65" ry="18"/>
<text text-anchor="middle" x="335" y="-878.3" font-family="Times,serif" font-size="14.00" fill="#000000">Acme Salt, &#160;sal</text>
</g>
<!-- Acme Salt, &#160;sal&#45;&gt;salt, &#160;sal -->
<g id="edge21" class="edge">
<title>Acme Salt, &#160;sal&#45;&gt;salt, &#160;sal</title>
<path fill="none" stroke="#000000" d="M359.15,-865.12C373.7,-854.95 392.35,-841.91 407.86,-831.07"/>
<polygon fill="#000000" stroke="#000000" points="409.9213,-833.8995 416.11,-825.3 405.9094,-828.1632 409.9213,-833.8995"/>
</g>
<!-- Procuring Acme Salt, &#160;pro -->
<g id="node23" class="node">
<title>Procuring Acme Salt, &#160;pro</title>
<ellipse fill="none" stroke="#ff0000" cx="104" cy="-954" rx="104" ry="18"/>
<text text-anchor="middle" x="104" y="-950.3" font-family="Times,serif" font-size="14.00" fill="#000000">Procuring Acme Salt, &#160;pro</text>
</g>
<!-- Procuring Acme Salt, &#160;pro&#45;&gt;Acme Salt, &#160;sal -->
<g id="edge22" class="edge">
<title>Procuring Acme Salt, &#160;pro&#45;&gt;Acme Salt, &#160;sal</title>
<path fill="none" stroke="#000000" d="M154.69,-938.2C192.37,-926.46 243.64,-910.48 281.88,-898.56"/>
<polygon fill="#000000" stroke="#000000" points="283.2934,-901.7857 291.8,-895.47 281.2115,-895.1024 283.2934,-901.7857"/>
</g>
<!-- Salt elemental analysis, &#160;ele -->
<g id="node24" class="node">
<title>Salt elemental analysis, &#160;ele</title>
<ellipse fill="none" stroke="#a020f0" cx="335" cy="-954" rx="109.381" ry="18"/>
<text text-anchor="middle" x="335" y="-950.3" font-family="Times,serif" font-size="14.00" fill="#000000">Salt elemental analysis, &#160;ele</text>
</g>
<!-- Salt elemental analysis, &#160;ele&#45;&gt;Acme Salt, &#160;sal -->
<g id="edge23" class="edge">
<title>Salt elemental analysis, &#160;ele&#45;&gt;Acme Salt, &#160;sal</title>
<path fill="none" stroke="#000000" d="M335,-935.83C335,-928.13 335,-918.97 335,-910.42"/>
<polygon fill="#000000" stroke="#000000" points="338.5001,-910.41 335,-900.41 331.5001,-910.41 338.5001,-910.41"/>
</g>
<!-- baking powder, &#160;bak -->
<g id="node25" class="node">
<title>baking powder, &#160;bak</title>
<ellipse fill="none" stroke="#0000ff" cx="663" cy="-810" rx="82.5854" ry="18"/>
<text text-anchor="middle" x="663" y="-806.3" font-family="Times,serif" font-size="14.00" fill="#000000">baking powder, &#160;bak</text>
</g>
<!-- baking powder, &#160;bak&#45;&gt;Mixing Dry Ingredients, &#160;mix -->
<g id="edge24" class="edge">
<title>baking powder, &#160;bak&#45;&gt;Mixing Dry Ingredients, &#160;mix</title>
<path fill="none" stroke="#000000" d="M689.31,-792.94C703.91,-783.46 722.29,-771.54 738.19,-761.23"/>
<polygon fill="#000000" stroke="#000000" points="740.2399,-764.0721 746.72,-755.69 736.4271,-758.2016 740.2399,-764.0721"/>
</g>
<!-- Acme Baking Powder, &#160;bak -->
<g id="node26" class="node">
<title>Acme Baking Powder, &#160;bak</title>
<ellipse fill="none" stroke="#00ff00" cx="644" cy="-882" rx="108" ry="18"/>
<text text-anchor="middle" x="644" y="-878.3" font-family="Times,serif" font-size="14.00" fill="#000000">Acme Baking Powder, &#160;bak</text>
</g>
<!-- Acme Baking Powder, &#160;bak&#45;&gt;baking powder, &#160;bak -->
<g id="edge25" class="edge">
<title>Acme Baking Powder, &#160;bak&#45;&gt;baking powder, &#160;bak</title>
<path fill="none" stroke="#000000" d="M648.8,-863.83C650.85,-856.05 653.3,-846.77 655.58,-838.13"/>
<polygon fill="#000000" stroke="#000000" points="658.9776,-838.9717 658.14,-828.41 652.2085,-837.1888 658.9776,-838.9717"/>
</g>
<!-- Procuring Acme Baking Powder, &#160;pro -->
<g id="node27" class="node">
<title>Procuring Acme Baking Powder, &#160;pro</title>
<ellipse fill="none" stroke="#ff0000" cx="606" cy="-954" rx="143.7746" ry="18"/>
<text text-anchor="middle" x="606" y="-950.3" font-family="Times,serif" font-size="14.00" fill="#000000">Procuring Acme Baking Powder, &#160;pro</text>
</g>
<!-- Procuring Acme Baking Powder, &#160;pro&#45;&gt;Acme Baking Powder, &#160;bak -->
<g id="edge26" class="edge">
<title>Procuring Acme Baking Powder, &#160;pro&#45;&gt;Acme Baking Powder, &#160;bak</title>
<path fill="none" stroke="#000000" d="M615.59,-935.83C619.83,-927.79 624.91,-918.17 629.6,-909.29"/>
<polygon fill="#000000" stroke="#000000" points="632.7139,-910.8885 634.28,-900.41 626.5212,-907.6247 632.7139,-910.8885"/>
</g>
<!-- flour, &#160;flo -->
<g id="node28" class="node">
<title>flour, &#160;flo</title>
<ellipse fill="none" stroke="#0000ff" cx="846" cy="-810" rx="43.5923" ry="18"/>
<text text-anchor="middle" x="846" y="-806.3" font-family="Times,serif" font-size="14.00" fill="#000000">flour, &#160;flo</text>
</g>
<!-- flour, &#160;flo&#45;&gt;Mixing Dry Ingredients, &#160;mix -->
<g id="edge27" class="edge">
<title>flour, &#160;flo&#45;&gt;Mixing Dry Ingredients, &#160;mix</title>
<path fill="none" stroke="#000000" d="M829.3,-793.3C820.36,-784.36 809.17,-773.17 799.2,-763.2"/>
<polygon fill="#000000" stroke="#000000" points="801.416,-760.4662 791.87,-755.87 796.4662,-765.416 801.416,-760.4662"/>
</g>
<!-- A1 Flour, &#160;flo -->
<g id="node29" class="node">
<title>A1 Flour, &#160;flo</title>
<ellipse fill="none" stroke="#00ff00" cx="866" cy="-882" rx="59.2899" ry="18"/>
<text text-anchor="middle" x="866" y="-878.3" font-family="Times,serif" font-size="14.00" fill="#000000">A1 Flour, &#160;flo</text>
</g>
<!-- A1 Flour, &#160;flo&#45;&gt;flour, &#160;flo -->
<g id="edge28" class="edge">
<title>A1 Flour, &#160;flo&#45;&gt;flour, &#160;flo</title>
<path fill="none" stroke="#000000" d="M860.95,-863.83C858.76,-855.93 856.14,-846.49 853.71,-837.74"/>
<polygon fill="#000000" stroke="#000000" points="857.0284,-836.6087 850.98,-827.91 850.2836,-838.4819 857.0284,-836.6087"/>
</g>
<!-- Procuring A1 Flour, &#160;pro -->
<g id="node30" class="node">
<title>Procuring A1 Flour, &#160;pro</title>
<ellipse fill="none" stroke="#ff0000" cx="866" cy="-954" rx="99" ry="18"/>
<text text-anchor="middle" x="866" y="-950.3" font-family="Times,serif" font-size="14.00" fill="#000000">Procuring A1 Flour, &#160;pro</text>
</g>
<!-- Procuring A1 Flour, &#160;pro&#45;&gt;A1 Flour, &#160;flo -->
<g id="edge29" class="edge">
<title>Procuring A1 Flour, &#160;pro&#45;&gt;A1 Flour, &#160;flo</title>
<path fill="none" stroke="#000000" d="M866,-935.83C866,-928.13 866,-918.97 866,-910.42"/>
<polygon fill="#000000" stroke="#000000" points="869.5001,-910.41 866,-900.41 862.5001,-910.41 869.5001,-910.41"/>
</g>
<!-- Flour nutritional analysis, &#160;nut -->
<g id="node31" class="node">
<title>Flour nutritional analysis, &#160;nut</title>
<ellipse fill="none" stroke="#a020f0" cx="1100.01" cy="-954" rx="117.7793" ry="18"/>
<text text-anchor="middle" x="1100.01" y="-950.3" font-family="Times,serif" font-size="14.00" fill="#000000">Flour nutritional analysis, &#160;nut</text>
</g>
<!-- Flour nutritional analysis, &#160;nut&#45;&gt;A1 Flour, &#160;flo -->
<g id="edge30" class="edge">
<title>Flour nutritional analysis, &#160;nut&#45;&gt;A1 Flour, &#160;flo</title>
<path fill="none" stroke="#000000" d="M1047.51,-937.84C1008.81,-925.93 956.35,-909.8 917.81,-897.94"/>
<polygon fill="#000000" stroke="#000000" points="918.407,-894.462 907.82,-894.87 916.3507,-901.1532 918.407,-894.462"/>
</g>
<!-- wet ingredients, &#160;wet -->
<g id="node32" class="node">
<title>wet ingredients, &#160;wet</title>
<ellipse fill="none" stroke="#0000ff" cx="1938.01" cy="-594" rx="84" ry="18"/>
<text text-anchor="middle" x="1938.01" y="-590.3" font-family="Times,serif" font-size="14.00" fill="#000000">wet ingredients, &#160;wet</text>
</g>
<!-- wet ingredients, &#160;wet&#45;&gt;Mixing Batter, &#160;mix -->
<g id="edge31" class="edge">
<title>wet ingredients, &#160;wet&#45;&gt;Mixing Batter, &#160;mix</title>
<path fill="none" stroke="#000000" d="M1942.81,-575.83C1944.81,-568.05 1947.31,-558.77 1949.61,-550.13"/>
<polygon fill="#000000" stroke="#000000" points="1953.0087,-550.9667 1952.11,-540.41 1946.2293,-549.2229 1953.0087,-550.9667"/>
</g>
<!-- Wet Ingredients, &#160;wet -->
<g id="node33" class="node">
<title>Wet Ingredients, &#160;wet</title>
<ellipse fill="none" stroke="#00ff00" cx="1937.01" cy="-666" rx="87.1846" ry="18"/>
<text text-anchor="middle" x="1937.01" y="-662.3" font-family="Times,serif" font-size="14.00" fill="#000000">Wet Ingredients, &#160;wet</text>
</g>
<!-- Wet Ingredients, &#160;wet&#45;&gt;wet ingredients, &#160;wet -->
<g id="edge32" class="edge">
<title>Wet Ingredients, &#160;wet&#45;&gt;wet ingredients, &#160;wet</title>
<path fill="none" stroke="#000000" d="M1937.21,-647.83C1937.41,-640.13 1937.51,-630.97 1937.61,-622.42"/>
<polygon fill="#000000" stroke="#000000" points="1941.1098,-622.4445 1937.71,-612.41 1934.1102,-622.3745 1941.1098,-622.4445"/>
</g>
<!-- Mixing Wet Ingredients, &#160;mix -->
<g id="node34" class="node">
<title>Mixing Wet Ingredients, &#160;mix</title>
<ellipse fill="none" stroke="#ff0000" cx="1903.01" cy="-738" rx="117.7793" ry="18"/>
<text text-anchor="middle" x="1903.01" y="-734.3" font-family="Times,serif" font-size="14.00" fill="#000000">Mixing Wet Ingredients, &#160;mix</text>
</g>
<!-- Mixing Wet Ingredients, &#160;mix&#45;&gt;Wet Ingredients, &#160;wet -->
<g id="edge33" class="edge">
<title>Mixing Wet Ingredients, &#160;mix&#45;&gt;Wet Ingredients, &#160;wet</title>
<path fill="none" stroke="#000000" d="M1911.61,-719.83C1915.31,-711.88 1919.81,-702.37 1924.01,-693.57"/>
<polygon fill="#000000" stroke="#000000" points="1927.2288,-694.9495 1928.31,-684.41 1920.8923,-691.9749 1927.2288,-694.9495"/>
</g>
<!-- vanilla, &#160;van -->
<g id="node35" class="node">
<title>vanilla, &#160;van</title>
<ellipse fill="none" stroke="#0000ff" cx="2078.01" cy="-810" rx="54" ry="18"/>
<text text-anchor="middle" x="2078.01" y="-806.3" font-family="Times,serif" font-size="14.00" fill="#000000">vanilla, &#160;van</text>
</g>
<!-- vanilla, &#160;van&#45;&gt;Mixing Frosting, &#160;mix -->
<g id="edge34" class="edge">
<title>vanilla, &#160;van&#45;&gt;Mixing Frosting, &#160;mix</title>
<path fill="none" stroke="#000000" d="M2103.71,-794.02C2119.51,-784.21 2140.01,-771.5 2157.51,-760.66"/>
<polygon fill="#000000" stroke="#000000" points="2159.6647,-763.4417 2166.31,-755.19 2155.9693,-757.4967 2159.6647,-763.4417"/>
</g>
<!-- vanilla, &#160;van&#45;&gt;Mixing Wet Ingredients, &#160;mix -->
<g id="edge35" class="edge">
<title>vanilla, &#160;van&#45;&gt;Mixing Wet Ingredients, &#160;mix</title>
<path fill="none" stroke="#000000" d="M2043.81,-795.95C2018.21,-785.39 1982.61,-770.77 1953.71,-758.86"/>
<polygon fill="#000000" stroke="#000000" points="1954.6906,-755.4795 1944.11,-754.93 1952.0385,-761.9577 1954.6906,-755.4795"/>
</g>
<!-- A1 Vanilla, &#160;van -->
<g id="node36" class="node">
<title>A1 Vanilla, &#160;van</title>
<ellipse fill="none" stroke="#00ff00" cx="2114.01" cy="-882" rx="68.4888" ry="18"/>
<text text-anchor="middle" x="2114.01" y="-878.3" font-family="Times,serif" font-size="14.00" fill="#000000">A1 Vanilla, &#160;van</text>
</g>
<!-- A1 Vanilla, &#160;van&#45;&gt;vanilla, &#160;van -->
<g id="edge36" class="edge">
<title>A1 Vanilla, &#160;van&#45;&gt;vanilla, &#160;van</title>
<path fill="none" stroke="#000000" d="M2104.91,-863.83C2100.81,-855.67 2095.91,-845.87 2091.41,-836.88"/>
<polygon fill="#000000" stroke="#000000" points="2094.5225,-835.2788 2086.91,-827.91 2088.2657,-838.4177 2094.5225,-835.2788"/>
</g>
<!-- Procuring A1 Vanilla, &#160;pro -->
<g id="node37" class="node">
<title>Procuring A1 Vanilla, &#160;pro</title>
<ellipse fill="none" stroke="#ff0000" cx="2151.01" cy="-954" rx="104.7816" ry="18"/>
<text text-anchor="middle" x="2151.01" y="-950.3" font-family="Times,serif" font-size="14.00" fill="#000000">Procuring A1 Vanilla, &#160;pro</text>
</g>
<!-- Procuring A1 Vanilla, &#160;pro&#45;&gt;A1 Vanilla, &#160;van -->
<g id="edge37" class="edge">
<title>Procuring A1 Vanilla, &#160;pro&#45;&gt;A1 Vanilla, &#160;van</title>
<path fill="none" stroke="#000000" d="M2141.71,-935.83C2137.51,-927.67 2132.41,-917.87 2127.81,-908.88"/>
<polygon fill="#000000" stroke="#000000" points="2130.8876,-907.2111 2123.21,-899.91 2124.6589,-910.4053 2130.8876,-907.2111"/>
</g>
<!-- eggs, &#160;egg -->
<g id="node38" class="node">
<title>eggs, &#160;egg</title>
<ellipse fill="none" stroke="#0000ff" cx="1721.01" cy="-810" rx="47" ry="18"/>
<text text-anchor="middle" x="1721.01" y="-806.3" font-family="Times,serif" font-size="14.00" fill="#000000">eggs, &#160;egg</text>
</g>
<!-- eggs, &#160;egg&#45;&gt;Mixing Wet Ingredients, &#160;mix -->
<g id="edge38" class="edge">
<title>eggs, &#160;egg&#45;&gt;Mixing Wet Ingredients, &#160;mix</title>
<path fill="none" stroke="#000000" d="M1753.91,-796.96C1781.01,-786.27 1819.71,-770.95 1850.91,-758.61"/>
<polygon fill="#000000" stroke="#000000" points="1852.306,-761.8216 1860.31,-754.88 1849.7241,-755.3151 1852.306,-761.8216"/>
</g>
<!-- Greenbrook Eggs, &#160;egg -->
<g id="node39" class="node">
<title>Greenbrook Eggs, &#160;egg</title>
<ellipse fill="none" stroke="#00ff00" cx="1658.01" cy="-882" rx="93" ry="18"/>
<text text-anchor="middle" x="1658.01" y="-878.3" font-family="Times,serif" font-size="14.00" fill="#000000">Greenbrook Eggs, &#160;egg</text>
</g>
<!-- Greenbrook Eggs, &#160;egg&#45;&gt;eggs, &#160;egg -->
<g id="edge39" class="edge">
<title>Greenbrook Eggs, &#160;egg&#45;&gt;eggs, &#160;egg</title>
<path fill="none" stroke="#000000" d="M1673.61,-864.2C1681.31,-855.35 1690.81,-844.51 1699.21,-834.86"/>
<polygon fill="#000000" stroke="#000000" points="1702.0518,-836.9277 1706.01,-827.1 1696.7871,-832.3143 1702.0518,-836.9277"/>
</g>
<!-- Procuring Greenbrook Eggs, &#160;pro -->
<g id="node40" class="node">
<title>Procuring Greenbrook Eggs, &#160;pro</title>
<ellipse fill="none" stroke="#ff0000" cx="1619.01" cy="-954" rx="128.8774" ry="18"/>
<text text-anchor="middle" x="1619.01" y="-950.3" font-family="Times,serif" font-size="14.00" fill="#000000">Procuring Greenbrook Eggs, &#160;pro</text>
</g>
<!-- Procuring Greenbrook Eggs, &#160;pro&#45;&gt;Greenbrook Eggs, &#160;egg -->
<g id="edge40" class="edge">
<title>Procuring Greenbrook Eggs, &#160;pro&#45;&gt;Greenbrook Eggs, &#160;egg</title>
<path fill="none" stroke="#000000" d="M1628.81,-935.83C1633.31,-927.67 1638.61,-917.87 1643.41,-908.88"/>
<polygon fill="#000000" stroke="#000000" points="1646.5875,-910.3639 1648.31,-899.91 1640.4444,-907.0081 1646.5875,-910.3639"/>
</g>
<!-- butter, &#160;but -->
<g id="node41" class="node">
<title>butter, &#160;but</title>
<ellipse fill="none" stroke="#0000ff" cx="1903.01" cy="-810" rx="49.5" ry="18"/>
<text text-anchor="middle" x="1903.01" y="-806.3" font-family="Times,serif" font-size="14.00" fill="#000000">butter, &#160;but</text>
</g>
<!-- butter, &#160;but&#45;&gt;Mixing Frosting, &#160;mix -->
<g id="edge41" class="edge">
<title>butter, &#160;but&#45;&gt;Mixing Frosting, &#160;mix</title>
<path fill="none" stroke="#000000" d="M1944.11,-799.84C1991.71,-788.06 2070.71,-768.49 2127.21,-754.52"/>
<polygon fill="#000000" stroke="#000000" points="2128.2437,-757.8699 2137.11,-752.07 2126.562,-751.0748 2128.2437,-757.8699"/>
</g>
<!-- butter, &#160;but&#45;&gt;Mixing Wet Ingredients, &#160;mix -->
<g id="edge42" class="edge">
<title>butter, &#160;but&#45;&gt;Mixing Wet Ingredients, &#160;mix</title>
<path fill="none" stroke="#000000" d="M1903.01,-791.83C1903.01,-784.13 1903.01,-774.97 1903.01,-766.42"/>
<polygon fill="#000000" stroke="#000000" points="1906.5101,-766.41 1903.01,-756.41 1899.5101,-766.41 1906.5101,-766.41"/>
</g>
<!-- Fresh Farm Butter, &#160;but -->
<g id="node42" class="node">
<title>Fresh Farm Butter, &#160;but</title>
<ellipse fill="none" stroke="#00ff00" cx="1899.01" cy="-882" rx="93.6835" ry="18"/>
<text text-anchor="middle" x="1899.01" y="-878.3" font-family="Times,serif" font-size="14.00" fill="#000000">Fresh Farm Butter, &#160;but</text>
</g>
<!-- Fresh Farm Butter, &#160;but&#45;&gt;butter, &#160;but -->
<g id="edge43" class="edge">
<title>Fresh Farm Butter, &#160;but&#45;&gt;butter, &#160;but</title>
<path fill="none" stroke="#000000" d="M1900.01,-863.83C1900.41,-856.13 1900.91,-846.97 1901.41,-838.42"/>
<polygon fill="#000000" stroke="#000000" points="1904.9053,-838.6015 1902.01,-828.41 1897.9178,-838.1826 1904.9053,-838.6015"/>
</g>
<!-- Procuring Fresh Farm Butter, &#160;pro -->
<g id="node43" class="node">
<title>Procuring Fresh Farm Butter, &#160;pro</title>
<ellipse fill="none" stroke="#ff0000" cx="1897.01" cy="-954" rx="131.5" ry="18"/>
<text text-anchor="middle" x="1897.01" y="-950.3" font-family="Times,serif" font-size="14.00" fill="#000000">Procuring Fresh Farm Butter, &#160;pro</text>
</g>
<!-- Procuring Fresh Farm Butter, &#160;pro&#45;&gt;Fresh Farm Butter, &#160;but -->
<g id="edge44" class="edge">
<title>Procuring Fresh Farm Butter, &#160;pro&#45;&gt;Fresh Farm Butter, &#160;but</title>
<path fill="none" stroke="#000000" d="M1897.51,-935.83C1897.71,-928.13 1898.01,-918.97 1898.21,-910.42"/>
<polygon fill="#000000" stroke="#000000" points="1901.7088,-910.5104 1898.51,-900.41 1894.7119,-910.3006 1901.7088,-910.5104"/>
</g>
<!-- sugar, &#160;sug -->
<g id="node44" class="node">
<title>sugar, &#160;sug</title>
<ellipse fill="none" stroke="#0000ff" cx="1500.01" cy="-810" rx="48.9926" ry="18"/>
<text text-anchor="middle" x="1500.01" y="-806.3" font-family="Times,serif" font-size="14.00" fill="#000000">sugar, &#160;sug</text>
</g>
<!-- sugar, &#160;sug&#45;&gt;Mixing Wet Ingredients, &#160;mix -->
<g id="edge45" class="edge">
<title>sugar, &#160;sug&#45;&gt;Mixing Wet Ingredients, &#160;mix</title>
<path fill="none" stroke="#000000" d="M1543.91,-802.16C1609.01,-790.53 1732.41,-768.48 1816.11,-753.52"/>
<polygon fill="#000000" stroke="#000000" points="1816.9742,-756.9215 1826.21,-751.73 1815.7526,-750.0289 1816.9742,-756.9215"/>
</g>
<!-- Reliable Sugar, &#160;sug -->
<g id="node45" class="node">
<title>Reliable Sugar, &#160;sug</title>
<ellipse fill="none" stroke="#00ff00" cx="1393.01" cy="-882" rx="82" ry="18"/>
<text text-anchor="middle" x="1393.01" y="-878.3" font-family="Times,serif" font-size="14.00" fill="#000000">Reliable Sugar, &#160;sug</text>
</g>
<!-- Reliable Sugar, &#160;sug&#45;&gt;sugar, &#160;sug -->
<g id="edge46" class="edge">
<title>Reliable Sugar, &#160;sug&#45;&gt;sugar, &#160;sug</title>
<path fill="none" stroke="#000000" d="M1418.61,-864.75C1433.41,-854.79 1452.21,-842.15 1468.01,-831.54"/>
<polygon fill="#000000" stroke="#000000" points="1470.0797,-834.3657 1476.41,-825.87 1466.1633,-828.5638 1470.0797,-834.3657"/>
</g>
<!-- Procuring Reliable Sugar, &#160;pro -->
<g id="node46" class="node">
<title>Procuring Reliable Sugar, &#160;pro</title>
<ellipse fill="none" stroke="#ff0000" cx="1354.01" cy="-954" rx="118.5" ry="18"/>
<text text-anchor="middle" x="1354.01" y="-950.3" font-family="Times,serif" font-size="14.00" fill="#000000">Procuring Reliable Sugar, &#160;pro</text>
</g>
<!-- Procuring Reliable Sugar, &#160;pro&#45;&gt;Reliable Sugar, &#160;sug -->
<g id="edge47" class="edge">
<title>Procuring Reliable Sugar, &#160;pro&#45;&gt;Reliable Sugar, &#160;sug</title>
<path fill="none" stroke="#000000" d="M1363.81,-935.83C1368.31,-927.67 1373.61,-917.87 1378.41,-908.88"/>
<polygon fill="#000000" stroke="#000000" points="1381.5875,-910.3639 1383.31,-899.91 1375.4444,-907.0081 1381.5875,-910.3639"/>
</g>
<!-- Frosting Sweetness, &#160;swe -->
<g id="node47" class="node">
<title>Frosting Sweetness, &#160;swe</title>
<ellipse fill="none" stroke="#a020f0" cx="2401.01" cy="-738" rx="99" ry="18"/>
<text text-anchor="middle" x="2401.01" y="-734.3" font-family="Times,serif" font-size="14.00" fill="#000000">Frosting Sweetness, &#160;swe</text>
</g>
<!-- Frosting Sweetness, &#160;swe&#45;&gt;Frosting, &#160;fro -->
<g id="edge49" class="edge">
<title>Frosting Sweetness, &#160;swe&#45;&gt;Frosting, &#160;fro</title>
<path fill="none" stroke="#000000" d="M2375.81,-720.57C2361.81,-710.9 2344.31,-698.76 2329.31,-688.4"/>
<polygon fill="#000000" stroke="#000000" points="2331.1118,-685.3892 2320.91,-682.53 2327.1021,-691.127 2331.1118,-685.3892"/>
</g>
<!-- Frosting Taste, &#160;tas -->
<g id="node48" class="node">
<title>Frosting Taste, &#160;tas</title>
<ellipse fill="none" stroke="#a020f0" cx="2596.01" cy="-738" rx="78" ry="18"/>
<text text-anchor="middle" x="2596.01" y="-734.3" font-family="Times,serif" font-size="14.00" fill="#000000">Frosting Taste, &#160;tas</text>
</g>
<!-- Frosting Taste, &#160;tas&#45;&gt;Frosting, &#160;fro -->
<g id="edge50" class="edge">
<title>Frosting Taste, &#160;tas&#45;&gt;Frosting, &#160;fro</title>
<path fill="none" stroke="#000000" d="M2541.81,-724.96C2488.31,-712.07 2406.71,-692.43 2352.71,-679.41"/>
<polygon fill="#000000" stroke="#000000" points="2353.4515,-675.9886 2342.91,-677.05 2351.8126,-682.794 2353.4515,-675.9886"/>
</g>
<!-- powdered sugar, &#160;pow -->
<g id="node49" class="node">
<title>powdered sugar, &#160;pow</title>
<ellipse fill="none" stroke="#0000ff" cx="2507.01" cy="-810" rx="87.9851" ry="18"/>
<text text-anchor="middle" x="2507.01" y="-806.3" font-family="Times,serif" font-size="14.00" fill="#000000">powdered sugar, &#160;pow</text>
</g>
<!-- powdered sugar, &#160;pow&#45;&gt;Mixing Frosting, &#160;mix -->
<g id="edge51" class="edge">
<title>powdered sugar, &#160;pow&#45;&gt;Mixing Frosting, &#160;mix</title>
<path fill="none" stroke="#000000" d="M2448.51,-796.54C2395.91,-784.45 2318.61,-766.67 2263.01,-753.88"/>
<polygon fill="#000000" stroke="#000000" points="2263.8411,-750.4799 2253.31,-751.64 2262.266,-757.3004 2263.8411,-750.4799"/>
</g>
<!-- A1 Powdered Sugar, &#160;pow -->
<g id="node50" class="node">
<title>A1 Powdered Sugar, &#160;pow</title>
<ellipse fill="none" stroke="#00ff00" cx="2665.01" cy="-882" rx="102.8821" ry="18"/>
<text text-anchor="middle" x="2665.01" y="-878.3" font-family="Times,serif" font-size="14.00" fill="#000000">A1 Powdered Sugar, &#160;pow</text>
</g>
<!-- A1 Powdered Sugar, &#160;pow&#45;&gt;powdered sugar, &#160;pow -->
<g id="edge52" class="edge">
<title>A1 Powdered Sugar, &#160;pow&#45;&gt;powdered sugar, &#160;pow</title>
<path fill="none" stroke="#000000" d="M2627.91,-865.12C2605.41,-854.84 2576.41,-841.64 2552.51,-830.74"/>
<polygon fill="#000000" stroke="#000000" points="2553.8596,-827.5086 2543.31,-826.53 2550.9467,-833.8738 2553.8596,-827.5086"/>
</g>
<!-- Procuring A1 Powdered Sugar, &#160;pro -->
<g id="node51" class="node">
<title>Procuring A1 Powdered Sugar, &#160;pro</title>
<ellipse fill="none" stroke="#ff0000" cx="2936.01" cy="-954" rx="137.2758" ry="18"/>
<text text-anchor="middle" x="2936.01" y="-950.3" font-family="Times,serif" font-size="14.00" fill="#000000">Procuring A1 Powdered Sugar, &#160;pro</text>
</g>
<!-- Procuring A1 Powdered Sugar, &#160;pro&#45;&gt;A1 Powdered Sugar, &#160;pow -->
<g id="edge53" class="edge">
<title>Procuring A1 Powdered Sugar, &#160;pro&#45;&gt;A1 Powdered Sugar, &#160;pow</title>
<path fill="none" stroke="#000000" d="M2875.21,-937.84C2832.51,-926.51 2775.51,-911.36 2731.61,-899.7"/>
<polygon fill="#000000" stroke="#000000" points="2732.4737,-896.3081 2721.91,-897.12 2730.6743,-903.0729 2732.4737,-896.3081"/>
</g>
<!-- Sugar elemental analysis, &#160;ele -->
<g id="node52" class="node">
<title>Sugar elemental analysis, &#160;ele</title>
<ellipse fill="none" stroke="#a020f0" cx="2665.01" cy="-954" rx="116.5" ry="18"/>
<text text-anchor="middle" x="2665.01" y="-950.3" font-family="Times,serif" font-size="14.00" fill="#000000">Sugar elemental analysis, &#160;ele</text>
</g>
<!-- Sugar elemental analysis, &#160;ele&#45;&gt;A1 Powdered Sugar, &#160;pow -->
<g id="edge54" class="edge">
<title>Sugar elemental analysis, &#160;ele&#45;&gt;A1 Powdered Sugar, &#160;pow</title>
<path fill="none" stroke="#000000" d="M2665.01,-935.83C2665.01,-928.13 2665.01,-918.97 2665.01,-910.42"/>
<polygon fill="#000000" stroke="#000000" points="2668.5101,-910.41 2665.01,-900.41 2661.5101,-910.41 2668.5101,-910.41"/>
</g>
<!-- chocolate, &#160;cho -->
<g id="node53" class="node">
<title>chocolate, &#160;cho</title>
<ellipse fill="none" stroke="#0000ff" cx="2865.01" cy="-810" rx="64.5" ry="18"/>
<text text-anchor="middle" x="2865.01" y="-806.3" font-family="Times,serif" font-size="14.00" fill="#000000">chocolate, &#160;cho</text>
</g>
<!-- chocolate, &#160;cho&#45;&gt;Mixing Frosting, &#160;mix -->
<g id="edge55" class="edge">
<title>chocolate, &#160;cho&#45;&gt;Mixing Frosting, &#160;mix</title>
<path fill="none" stroke="#000000" d="M2802.21,-805.84C2696.61,-798.45 2477.31,-781.4 2293.01,-756 2285.11,-754.91 2276.91,-753.65 2268.71,-752.29"/>
<polygon fill="#000000" stroke="#000000" points="2269.2547,-748.8325 2258.81,-750.61 2268.0835,-755.7338 2269.2547,-748.8325"/>
</g>
<!-- Reliable Chocolate, &#160;cho -->
<g id="node54" class="node">
<title>Reliable Chocolate, &#160;cho</title>
<ellipse fill="none" stroke="#00ff00" cx="3054.01" cy="-882" rx="98.2828" ry="18"/>
<text text-anchor="middle" x="3054.01" y="-878.3" font-family="Times,serif" font-size="14.00" fill="#000000">Reliable Chocolate, &#160;cho</text>
</g>
<!-- Reliable Chocolate, &#160;cho&#45;&gt;chocolate, &#160;cho -->
<g id="edge56" class="edge">
<title>Reliable Chocolate, &#160;cho&#45;&gt;chocolate, &#160;cho</title>
<path fill="none" stroke="#000000" d="M3011.11,-865.66C2981.81,-854.51 2943.01,-839.71 2912.71,-828.18"/>
<polygon fill="#000000" stroke="#000000" points="2913.8009,-824.8502 2903.21,-824.56 2911.3083,-831.3914 2913.8009,-824.8502"/>
</g>
<!-- Procuring Reliable Chocolate, &#160;pro -->
<g id="node55" class="node">
<title>Procuring Reliable Chocolate, &#160;pro</title>
<ellipse fill="none" stroke="#ff0000" cx="3225.01" cy="-954" rx="134" ry="18"/>
<text text-anchor="middle" x="3225.01" y="-950.3" font-family="Times,serif" font-size="14.00" fill="#000000">Procuring Reliable Chocolate, &#160;pro</text>
</g>
<!-- Procuring Reliable Chocolate, &#160;pro&#45;&gt;Reliable Chocolate, &#160;cho -->
<g id="edge57" class="edge">
<title>Procuring Reliable Chocolate, &#160;pro&#45;&gt;Reliable Chocolate, &#160;cho</title>
<path fill="none" stroke="#000000" d="M3184.01,-936.75C3159.71,-926.5 3128.61,-913.43 3103.01,-902.63"/>
<polygon fill="#000000" stroke="#000000" points="3103.9858,-899.2442 3093.41,-898.61 3101.282,-905.701 3103.9858,-899.2442"/>
</g>
</g>
</svg>
