<?xml version="1.0" encoding="UTF-8" standalone="no"?>
<!DOCTYPE svg PUBLIC "-//W3C//DTD SVG 1.1//EN"
 "http://www.w3.org/Graphics/SVG/1.1/DTD/svg11.dtd">
<!-- Generated by graphviz version 2.40.1 (0)
 -->
<!-- Pages: 1 -->
<svg width="405pt" height="260pt"
 viewBox="0.00 0.00 404.73 260.00" xmlns="http://www.w3.org/2000/svg" xmlns:xlink="http://www.w3.org/1999/xlink">
<g id="graph0" class="graph" transform="scale(1 1) rotate(0) translate(4 256)">
<polygon fill="#ffffff" stroke="transparent" points="-4,4 -4,-256 400.7341,-256 400.7341,4 -4,4"/>
<!-- Cake, &#160;cak -->
<g id="node1" class="node">
<title>Cake, &#160;cak</title>
<ellipse fill="none" stroke="#00ff00" cx="253.7341" cy="-18" rx="48.1917" ry="18"/>
<text text-anchor="middle" x="253.7341" y="-14.3" font-family="Times,serif" font-size="14.00" fill="#000000">Cake, &#160;cak</text>
</g>
<!-- Icing Cake, &#160;ici -->
<g id="node2" class="node">
<title>Icing Cake, &#160;ici</title>
<ellipse fill="none" stroke="#ff0000" cx="178.7341" cy="-90" rx="65.7887" ry="18"/>
<text text-anchor="middle" x="178.7341" y="-86.3" font-family="Times,serif" font-size="14.00" fill="#000000">Icing Cake, &#160;ici</text>
</g>
<!-- Icing Cake, &#160;ici&#45;&gt;Cake, &#160;cak -->
<g id="edge1" class="edge">
<title>Icing Cake, &#160;ici&#45;&gt;Cake, &#160;cak</title>
<path fill="none" stroke="#000000" d="M196.8941,-72.571C206.5241,-63.328 218.4941,-51.835 228.9641,-41.784"/>
<polygon fill="#000000" stroke="#000000" points="231.4761,-44.2242 236.2641,-34.773 226.6273,-39.1755 231.4761,-44.2242"/>
</g>
<!-- frosting, &#160;fro -->
<g id="node3" class="node">
<title>frosting, &#160;fro</title>
<ellipse fill="none" stroke="#0000ff" cx="178.7341" cy="-162" rx="56" ry="18"/>
<text text-anchor="middle" x="178.7341" y="-158.3" font-family="Times,serif" font-size="14.00" fill="#000000">frosting, &#160;fro</text>
</g>
<!-- frosting, &#160;fro&#45;&gt;Icing Cake, &#160;ici -->
<g id="edge2" class="edge">
<title>frosting, &#160;fro&#45;&gt;Icing Cake, &#160;ici</title>
<path fill="none" stroke="#000000" d="M178.7341,-143.83C178.7341,-136.13 178.7341,-126.97 178.7341,-118.42"/>
<polygon fill="#000000" stroke="#000000" points="182.2342,-118.41 178.7341,-108.41 175.2342,-118.41 182.2342,-118.41"/>
</g>
<!-- frosting&#45;d576929a6c518c058db29324c13db0c3 -->
<g id="node4" class="node">
<title>frosting&#45;d576929a6c518c058db29324c13db0c3</title>
<ellipse fill="none" stroke="#000000" cx="178.7341" cy="-234" rx="178.9686" ry="18"/>
<text text-anchor="middle" x="178.7341" y="-230.3" font-family="Times,serif" font-size="14.00" fill="#000000">frosting&#45;d576929a6c518c058db29324c13db0c3</text>
</g>
<!-- frosting&#45;d576929a6c518c058db29324c13db0c3&#45;&gt;frosting, &#160;fro -->
<g id="edge3" class="edge">
<title>frosting&#45;d576929a6c518c058db29324c13db0c3&#45;&gt;frosting, &#160;fro</title>
<path fill="none" stroke="#000000" d="M178.7341,-215.83C178.7341,-208.13 178.7341,-198.97 178.7341,-190.42"/>
<polygon fill="#000000" stroke="#000000" points="182.2342,-190.41 178.7341,-180.41 175.2342,-190.41 182.2342,-190.41"/>
</g>
<!-- Final Taste, &#160;tas -->
<g id="node5" class="node">
<title>Final Taste, &#160;tas</title>
<ellipse fill="none" stroke="#a020f0" cx="329.7341" cy="-90" rx="67" ry="18"/>
<text text-anchor="middle" x="329.7341" y="-86.3" font-family="Times,serif" font-size="14.00" fill="#000000">Final Taste, &#160;tas</text>
</g>
<!-- Final Taste, &#160;tas&#45;&gt;Cake, &#160;cak -->
<g id="edge4" class="edge">
<title>Final Taste, &#160;tas&#45;&gt;Cake, &#160;cak</title>
<path fill="none" stroke="#000000" d="M311.3441,-72.571C301.5841,-63.328 289.4541,-51.835 278.8441,-41.784"/>
<polygon fill="#000000" stroke="#000000" points="281.1107,-39.11 271.4441,-34.773 276.2963,-44.1915 281.1107,-39.11"/>
</g>
</g>
</svg>
