<?xml version="1.0" encoding="UTF-8" standalone="no"?>
<!DOCTYPE svg PUBLIC "-//W3C//DTD SVG 1.1//EN"
 "http://www.w3.org/Graphics/SVG/1.1/DTD/svg11.dtd">
<!-- Generated by graphviz version 2.40.1 (0)
 -->
<!-- Pages: 1 -->
<svg width="764pt" height="188pt"
 viewBox="0.00 0.00 763.63 188.00" xmlns="http://www.w3.org/2000/svg" xmlns:xlink="http://www.w3.org/1999/xlink">
<g id="graph0" class="graph" transform="scale(1 1) rotate(0) translate(4 184)">
<polygon fill="#ffffff" stroke="transparent" points="-4,4 -4,-184 759.6326,-184 759.6326,4 -4,4"/>
<!-- Alloy (AAB04&#45;VAM&#45;A) Ing. [a48] -->
<g id="node1" class="node">
<title>Alloy (AAB04&#45;VAM&#45;A) Ing. [a48]</title>
<ellipse fill="none" stroke="#0000ff" cx="195.6326" cy="-162" rx="159.4721" ry="18"/>
<text text-anchor="middle" x="195.6326" y="-158.3" font-family="Times,serif" font-size="14.00" fill="#000000">Alloy (AAB04&#45;VAM&#45;A) Ing. [a48]</text>
</g>
<!-- Arc melting Alloy (AAB04&#45;VAM&#45;A) [6a7] -->
<g id="node2" class="node">
<title>Arc melting Alloy (AAB04&#45;VAM&#45;A) [6a7]</title>
<ellipse fill="none" stroke="#ff0000" cx="195.6326" cy="-90" rx="195.7654" ry="18"/>
<text text-anchor="middle" x="195.6326" y="-86.3" font-family="Times,serif" font-size="14.00" fill="#000000">Arc melting Alloy (AAB04&#45;VAM&#45;A) [6a7]</text>
</g>
<!-- Alloy (AAB04&#45;VAM&#45;A) Ing. [a48]&#45;&gt;Arc melting Alloy (AAB04&#45;VAM&#45;A) [6a7] -->
<g id="edge1" class="edge">
<title>Alloy (AAB04&#45;VAM&#45;A) Ing. [a48]&#45;&gt;Arc melting Alloy (AAB04&#45;VAM&#45;A) [6a7]</title>
<path fill="none" stroke="#000000" d="M195.6326,-143.83C195.6326,-136.13 195.6326,-126.97 195.6326,-118.42"/>
<polygon fill="#000000" stroke="#000000" points="199.1327,-118.41 195.6326,-108.41 192.1327,-118.41 199.1327,-118.41"/>
</g>
<!-- Arc Melted Alloy (AAB04&#45;VAM&#45;A) [9ab] -->
<g id="node3" class="node">
<title>Arc Melted Alloy (AAB04&#45;VAM&#45;A) [9ab]</title>
<ellipse fill="none" stroke="#00ff00" cx="388.6326" cy="-18" rx="192.5" ry="18"/>
<text text-anchor="middle" x="388.6326" y="-14.3" font-family="Times,serif" font-size="14.00" fill="#000000">Arc Melted Alloy (AAB04&#45;VAM&#45;A) [9ab]</text>
</g>
<!-- Arc melting Alloy (AAB04&#45;VAM&#45;A) [6a7]&#45;&gt;Arc Melted Alloy (AAB04&#45;VAM&#45;A) [9ab] -->
<g id="edge2" class="edge">
<title>Arc melting Alloy (AAB04&#45;VAM&#45;A) [6a7]&#45;&gt;Arc Melted Alloy (AAB04&#45;VAM&#45;A) [9ab]</title>
<path fill="none" stroke="#000000" d="M242.8526,-72.387C269.8226,-62.325 303.8126,-49.644 332.1826,-39.059"/>
<polygon fill="#000000" stroke="#000000" points="333.4267,-42.3306 341.5726,-35.556 330.98,-35.7721 333.4267,-42.3306"/>
</g>
<!-- Weigh Arc Melted Alloy (AAB04&#45;VAM&#45;A) [528] -->
<g id="node4" class="node">
<title>Weigh Arc Melted Alloy (AAB04&#45;VAM&#45;A) [528]</title>
<polygon fill="none" stroke="#a020f0" points="755.6326,-108 409.6326,-108 409.6326,-72 755.6326,-72 755.6326,-108"/>
<text text-anchor="middle" x="582.6326" y="-86.3" font-family="Times,serif" font-size="14.00" fill="#000000">Weigh Arc Melted Alloy (AAB04&#45;VAM&#45;A) [528]</text>
</g>
<!-- Weigh Arc Melted Alloy (AAB04&#45;VAM&#45;A) [528]&#45;&gt;Arc Melted Alloy (AAB04&#45;VAM&#45;A) [9ab] -->
<g id="edge3" class="edge">
<title>Weigh Arc Melted Alloy (AAB04&#45;VAM&#45;A) [528]&#45;&gt;Arc Melted Alloy (AAB04&#45;VAM&#45;A) [9ab]</title>
<path fill="none" stroke="#000000" d="M533.6826,-71.831C506.8726,-61.882 473.5126,-49.5 445.5426,-39.122"/>
<polygon fill="#000000" stroke="#000000" points="446.4956,-35.7424 435.9026,-35.541 444.058,-42.3042 446.4956,-35.7424"/>
</g>
</g>
</svg>
