<?xml version="1.0" encoding="UTF-8" standalone="no"?>
<!DOCTYPE svg PUBLIC "-//W3C//DTD SVG 1.1//EN"
 "http://www.w3.org/Graphics/SVG/1.1/DTD/svg11.dtd">
<!-- Generated by graphviz version 2.40.1 (0)
 -->
<!-- Pages: 1 -->
<svg width="625pt" height="404pt"
 viewBox="0.00 0.00 624.50 404.00" xmlns="http://www.w3.org/2000/svg" xmlns:xlink="http://www.w3.org/1999/xlink">
<g id="graph0" class="graph" transform="scale(1 1) rotate(0) translate(4 400)">
<polygon fill="#ffffff" stroke="transparent" points="-4,4 -4,-400 620.5,-400 620.5,4 -4,4"/>
<!-- SampleDiameter [177] -->
<g id="node1" class="node">
<title>SampleDiameter [177]</title>
<polygon fill="none" stroke="#a020f0" points="179,-252 0,-252 0,-216 179,-216 179,-252"/>
<text text-anchor="middle" x="89.5" y="-230.3" font-family="Times,serif" font-size="14.00" fill="#000000">SampleDiameter [177]</text>
</g>
<!-- Impact Sample [d30] -->
<g id="node2" class="node">
<title>Impact Sample [d30]</title>
<ellipse fill="none" stroke="#00ff00" cx="247.5" cy="-162" rx="108.5808" ry="18"/>
<text text-anchor="middle" x="247.5" y="-158.3" font-family="Times,serif" font-size="14.00" fill="#000000">Impact Sample [d30]</text>
</g>
<!-- SampleDiameter [177]&#45;&gt;Impact Sample [d30] -->
<g id="edge1" class="edge">
<title>SampleDiameter [177]&#45;&gt;Impact Sample [d30]</title>
<path fill="none" stroke="#000000" d="M129.37,-215.83C151.22,-205.87 178.42,-193.48 201.21,-183.09"/>
<polygon fill="#000000" stroke="#000000" points="202.7053,-186.255 210.36,-178.93 199.8081,-179.8827 202.7053,-186.255"/>
</g>
<!-- Impact Sample [b05] -->
<g id="node3" class="node">
<title>Impact Sample [b05]</title>
<ellipse fill="none" stroke="#0000ff" cx="247.5" cy="-90" rx="108.5808" ry="18"/>
<text text-anchor="middle" x="247.5" y="-86.3" font-family="Times,serif" font-size="14.00" fill="#000000">Impact Sample [b05]</text>
</g>
<!-- Impact Sample [d30]&#45;&gt;Impact Sample [b05] -->
<g id="edge2" class="edge">
<title>Impact Sample [d30]&#45;&gt;Impact Sample [b05]</title>
<path fill="none" stroke="#000000" d="M247.5,-143.83C247.5,-136.13 247.5,-126.97 247.5,-118.42"/>
<polygon fill="#000000" stroke="#000000" points="251.0001,-118.41 247.5,-108.41 244.0001,-118.41 251.0001,-118.41"/>
</g>
<!-- 363c45d4&#45;6f13&#45;4ea9&#45;8dd9&#45;eb0a9d321f0b -->
<g id="node4" class="node">
<title>363c45d4&#45;6f13&#45;4ea9&#45;8dd9&#45;eb0a9d321f0b</title>
<ellipse fill="none" stroke="#000000" cx="247.5" cy="-18" rx="202.2642" ry="18"/>
<text text-anchor="middle" x="247.5" y="-14.3" font-family="Times,serif" font-size="14.00" fill="#000000">363c45d4&#45;6f13&#45;4ea9&#45;8dd9&#45;eb0a9d321f0b</text>
</g>
<!-- Impact Sample [b05]&#45;&gt;363c45d4&#45;6f13&#45;4ea9&#45;8dd9&#45;eb0a9d321f0b -->
<g id="edge3" class="edge">
<title>Impact Sample [b05]&#45;&gt;363c45d4&#45;6f13&#45;4ea9&#45;8dd9&#45;eb0a9d321f0b</title>
<path fill="none" stroke="#000000" d="M247.5,-71.831C247.5,-64.131 247.5,-54.974 247.5,-46.417"/>
<polygon fill="#000000" stroke="#000000" points="251.0001,-46.413 247.5,-36.413 244.0001,-46.413 251.0001,-46.413"/>
</g>
<!-- Sample [39c] -->
<g id="node5" class="node">
<title>Sample [39c]</title>
<ellipse fill="none" stroke="#0000ff" cx="406.5" cy="-306" rx="72.2875" ry="18"/>
<text text-anchor="middle" x="406.5" y="-302.3" font-family="Times,serif" font-size="14.00" fill="#000000">Sample [39c]</text>
</g>
<!-- Impact Sample Cutting and Polishing [5f4] -->
<g id="node6" class="node">
<title>Impact Sample Cutting and Polishing [5f4]</title>
<ellipse fill="none" stroke="#ff0000" cx="406.5" cy="-234" rx="210" ry="18"/>
<text text-anchor="middle" x="406.5" y="-230.3" font-family="Times,serif" font-size="14.00" fill="#000000">Impact Sample Cutting and Polishing [5f4]</text>
</g>
<!-- Sample [39c]&#45;&gt;Impact Sample Cutting and Polishing [5f4] -->
<g id="edge4" class="edge">
<title>Sample [39c]&#45;&gt;Impact Sample Cutting and Polishing [5f4]</title>
<path fill="none" stroke="#000000" d="M406.5,-287.83C406.5,-280.13 406.5,-270.97 406.5,-262.42"/>
<polygon fill="#000000" stroke="#000000" points="410.0001,-262.41 406.5,-252.41 403.0001,-262.41 410.0001,-262.41"/>
</g>
<!-- Impact Sample Cutting and Polishing [5f4]&#45;&gt;Impact Sample [d30] -->
<g id="edge5" class="edge">
<title>Impact Sample Cutting and Polishing [5f4]&#45;&gt;Impact Sample [d30]</title>
<path fill="none" stroke="#000000" d="M367.2,-216.2C345.13,-206.21 317.46,-193.68 294.28,-183.18"/>
<polygon fill="#000000" stroke="#000000" points="295.5335,-179.9055 284.98,-178.97 292.6466,-186.2826 295.5335,-179.9055"/>
</g>
<!-- aa147525&#45;4b23&#45;4092&#45;a970&#45;5e576a0b12ca -->
<g id="node7" class="node">
<title>aa147525&#45;4b23&#45;4092&#45;a970&#45;5e576a0b12ca</title>
<ellipse fill="none" stroke="#000000" cx="406.5" cy="-378" rx="206.0634" ry="18"/>
<text text-anchor="middle" x="406.5" y="-374.3" font-family="Times,serif" font-size="14.00" fill="#000000">aa147525&#45;4b23&#45;4092&#45;a970&#45;5e576a0b12ca</text>
</g>
<!-- aa147525&#45;4b23&#45;4092&#45;a970&#45;5e576a0b12ca&#45;&gt;Sample [39c] -->
<g id="edge6" class="edge">
<title>aa147525&#45;4b23&#45;4092&#45;a970&#45;5e576a0b12ca&#45;&gt;Sample [39c]</title>
<path fill="none" stroke="#000000" d="M406.5,-359.83C406.5,-352.13 406.5,-342.97 406.5,-334.42"/>
<polygon fill="#000000" stroke="#000000" points="410.0001,-334.41 406.5,-324.41 403.0001,-334.41 410.0001,-334.41"/>
</g>
</g>
</svg>
